PathFileType	4	(X/Y/Z)	C:/Users/Carlo/Dropbox/Carlos/SARAH/CongressoMarcha2025/WorkshopOpenSim/C3D/Caso01/Cal 01.c3d.trc
DataRate	CameraRate	NumFrames	NumMarkers	Units	OrigDataRate	OrigDataStartFrame	OrigNumFrames
100.000000	100.000000	4	70	mm	100.000000	111	178
Frame#	Time	LASI			RASI			LPSI			RPSI			LTHI			LKNE			LTIB			LANK			LHEE			LTOE			RTHI			RKNE			RTIB			RANK			RHEE			RTOE			PELO			PELA			PELL			PELP			LFEO			LFEA			LFEL			LFEP			LTIO			LTIA			LTIL			LTIP			LFOO			LFOA			LFOL			LFOP			LTOO			LTOA			LTOL			LTOP			RFEO			RFEA			RFEL			RFEP			RTIO			RTIA			RTIL			RTIP			RFOO			RFOA			RFOL			RFOP			RTOO			RTOA			RTOL			RTOP			LHipAngles			LKneeAngles			LAbsAnkleAngle			LAnkleAngles			RHipAngles			RKneeAngles			RAnkleAngles			RAbsAnkleAngle			LPelvisAngles			RPelvisAngles			LFootProgressAngles			RFootProgressAngles			LHJC			RHJC			LKJC			RKJC			LAJC			RAJC			
		X1	Y1	Z1	X2	Y2	Z2	X3	Y3	Z3	X4	Y4	Z4	X5	Y5	Z5	X6	Y6	Z6	X7	Y7	Z7	X8	Y8	Z8	X9	Y9	Z9	X10	Y10	Z10	X11	Y11	Z11	X12	Y12	Z12	X13	Y13	Z13	X14	Y14	Z14	X15	Y15	Z15	X16	Y16	Z16	X17	Y17	Z17	X18	Y18	Z18	X19	Y19	Z19	X20	Y20	Z20	X21	Y21	Z21	X22	Y22	Z22	X23	Y23	Z23	X24	Y24	Z24	X25	Y25	Z25	X26	Y26	Z26	X27	Y27	Z27	X28	Y28	Z28	X29	Y29	Z29	X30	Y30	Z30	X31	Y31	Z31	X32	Y32	Z32	X33	Y33	Z33	X34	Y34	Z34	X35	Y35	Z35	X36	Y36	Z36	X37	Y37	Z37	X38	Y38	Z38	X39	Y39	Z39	X40	Y40	Z40	X41	Y41	Z41	X42	Y42	Z42	X43	Y43	Z43	X44	Y44	Z44	X45	Y45	Z45	X46	Y46	Z46	X47	Y47	Z47	X48	Y48	Z48	X49	Y49	Z49	X50	Y50	Z50	X51	Y51	Z51	X52	Y52	Z52	X53	Y53	Z53	X54	Y54	Z54	X55	Y55	Z55	X56	Y56	Z56	X57	Y57	Z57	X58	Y58	Z58	X59	Y59	Z59	X60	Y60	Z60	X61	Y61	Z61	X62	Y62	Z62	X63	Y63	Z63	X64	Y64	Z64	X65	Y65	Z65	X66	Y66	Z66	X67	Y67	Z67	X68	Y68	Z68	X69	Y69	Z69	X70	Y70	Z70	

112	1.11	59.00379562377933	1047.175048828125	-310.3513488769532	74.57190704345706	1057.086059570313	-523.5623779296877	253.0709381103517	1063.263671875	-342.109344482422	265.9490966796876	1064.328247070313	-453.5252685546877	121.872055053711	749.668151855469	-216.3265686035157	126.3278808593751	539.3765869140627	-251.9783325195314	157.8821563720704	302.7453002929689	-218.9142150878907	175.9386596679688	100.0980300903321	-223.3076324462892	238.541717529297	55.97737121582034	-265.4616088867189	12.99108886718751	63.25915908813479	-247.7583923339845	128.2979583740235	817.1974487304692	-611.7019042968752	118.2680435180665	537.8347778320315	-575.1626586914065	150.3198699951172	383.7991333007814	-604.0502929687502	179.8766326904297	96.70191192626959	-598.9378662109377	246.1983489990236	58.92073822021487	-553.6383056640627	21.79962348937989	62.88673782348636	-576.9068603515627	119.9605026245118	958.241821289063	-417.4387207031252	-8.355476379394535	950.3493652343755	-427.1749267578127	110.5816650390626	952.2710571289067	-288.9923706054689	111.6465301513672	1086.7880859375	-412.0704040527346	125.693214416504	533.405212402344	-309.6666259765626	-298.3909606933595	523.4537353515627	-303.9709777832032	130.3353881835938	577.0827636718752	112.2925720214844	115.2088470458985	955.2725219726567	-353.2193298339845	170.9111328125001	95.33035278320315	-268.2769775390626	-246.2241210937501	57.06328201293948	-217.5845642089845	217.5337982177736	139.5433044433594	148.7450866699219	127.7785949707032	513.2019653320315	-307.7578125000001	16.50790023803712	87.65961456298831	-240.3984680175782	21.68758392333985	305.7099914550782	-264.0953369140626	34.32344818115236	110.8665008544922	-22.96257019042969	235.1173706054689	80.60192871093753	-257.5569152832032	-56.361930847168	90.01218414306643	-234.6789855957032	-54.63534927368167	162.6956329345704	-242.5779724121095	-50.42341995239261	97.74784851074224	-162.2003479003907	16.50790405273438	87.65961456298831	-240.3984527587892	114.7985000610352	533.040954589844	-518.4707031250002	-314.154022216797	545.141784667969	-543.6992797851565	88.63306427001956	496.8881835937502	-90.92938232421878	124.7121582031251	961.2111206054692	-481.6580505371096	170.0703277587891	91.86006164550784	-553.7422485351565	-243.0150299072267	47.6523895263672	-648.1072387695315	80.22642517089847	47.4996795654297	-139.6664428710938	117.2769012451172	513.258239746094	-520.0522460937502	17.0388469696045	81.95674133300784	-585.3653564453127	18.4347038269043	299.3601989746095	-561.7717895507815	-5.795303344726564	58.63660430908206	-369.1302185058595	234.5233764648439	78.11297607421878	-562.8137817382815	-55.45599365234378	83.2380065917969	-592.8825683593752	-54.99071884155276	155.7058258056641	-585.0180664062502	-63.06738281250003	75.46463012695315	-520.8041992187502	17.03884887695313	81.95676422119143	-585.3653564453127	-8.42606353759766	-5.056155204772951	1.652473211288453	0.4455864727497103	-5.701330184936525	4.456464290618898	0	0	7.261497497558597	-4.605848580134521e-13	1.686632633209229	7.264664173126224	-2.149798870086671	0.7348564863204958	5.190050125122072	-0.1722432225942612	-8.775128364562992	8.445105552673343	-5.174629171336711e-13	6.181001663208011	7.657215595245365	0	0	7.612429618835453	-2.386414051055909	4.334705829620363	3.700570344924929	2.386414051055909	-4.334705829620363	3.700570344924929	-6.219744682312015	-4.485553264617922	-91.84912872314456	-6.226941108703617	-5.919090747833254	-91.01253509521487	115.2088470458985	955.272583007813	-353.2193603515626	124.7121505737305	961.2111206054692	-481.6580505371096	125.693214416504	533.405212402344	-309.6666259765626	114.7984924316407	533.040954589844	-518.470642089844	170.911117553711	95.33035278320315	-268.2769775390626	170.0703277587891	91.86005401611331	-553.7422485351565	
113	1.12	59.01983642578128	1047.186889648438	-310.3959960937501	75.04827117919925	1056.998168945313	-523.6407470703127	253.1192474365236	1063.2861328125	-342.1186828613282	265.9991455078126	1064.32568359375	-453.5151367187502	121.9108886718751	749.6589965820315	-216.3234405517579	126.4869384765626	539.434753417969	-251.9981231689454	157.8381652832032	302.7604370117189	-218.9673461914064	175.9412231445313	100.108268737793	-223.311248779297	238.5590820312501	56.00471878051761	-265.4714355468751	12.98387718200684	63.29250717163089	-247.7629547119142	128.3691406250001	817.1945800781255	-611.6784667968752	118.4818267822266	537.8096313476565	-575.098815917969	150.4387969970704	383.7971801757814	-604.0588378906252	179.9055480957032	96.68948364257818	-598.9444580078127	246.2378997802736	58.91489028930667	-553.610046386719	21.86511611938477	62.89398956298831	-576.9090576171877	120.2242050170899	958.2130737304692	-417.3396911621096	-8.06919097900391	950.2929687500005	-427.3472290039065	110.5708847045899	952.304077148438	-288.9108276367189	111.8760070800782	1086.760375976563	-412.0527343750002	125.9233932495118	533.4790649414065	-309.6887817382814	-298.0832519531251	523.369567871094	-304.5032348632814	130.0446777343751	577.033386230469	112.2078247070313	115.3353347778321	955.2746582031255	-353.1292724609376	171.0618896484376	95.35554504394534	-268.2985229492189	-246.2726440429689	57.01768875122073	-218.9840393066407	216.3145751953126	139.4340057373047	148.9293823242188	128.0048980712891	513.275573730469	-307.7801208496095	16.65823364257813	87.6813888549805	-240.4233245849611	21.85045623779298	305.7418823242189	-264.023651123047	34.47518920898439	110.7909393310547	-22.97720336914063	235.2672882080079	80.61870574951175	-257.5849914550782	-56.21146011352542	90.03562927246097	-234.7027893066407	-54.48072052001956	162.7224731445313	-242.5695648193361	-50.27247619628909	97.73881530761724	-162.2207336425782	16.65822219848634	87.68140411376956	-240.4233398437501	115.1688461303712	533.0066528320315	-518.3982543945315	-313.8317871093751	545.0404052734377	-542.4451904296877	90.1852951049805	496.7871093750002	-90.81365966796878	125.1131057739258	961.151489257813	-481.5502014160159	170.2033233642579	91.85797119140628	-553.725280761719	-243.0611724853517	47.77995681762697	-647.1049804687502	81.32464599609378	47.5982131958008	-139.4888305664063	117.636947631836	513.2229003906252	-519.9825439453127	17.17541122436524	81.95941162109378	-585.3671875000002	18.58741760253907	299.3693847656251	-561.834655761719	-5.691326141357424	58.70223236083987	-369.1286926269532	234.6564178466798	78.10253906250003	-562.783874511719	-55.31825256347659	83.24504089355472	-592.8950195312502	-54.84761810302737	155.7150268554688	-585.0508422851565	-62.94053649902347	75.49263763427737	-520.8154907226565	17.17542266845704	81.95943450927737	-585.3671875000002	-8.379414558410648	-5.110038757324221	1.639157056808473	0.4377913475036623	-5.58399534225464	4.430620193481447	0	0	7.251914024353031	5.528104016216952e-13	1.498470783233643	7.254421710968021	-2.178371667861939	1.015897512435914	5.2170786857605	-0.1500528454780579	-8.798360824584964	8.419767379760746	4.957391376743394e-13	6.041266441345218	7.627250671386722	0	0	7.584642410278324	-2.3501935005188	4.455632209777834	3.715723752975466	2.3501935005188	-4.455632209777834	3.715723752975466	-6.194315433502201	-4.486392021179201	-91.85044097900393	-6.210858345031742	-5.927457332611086	-91.01599121093753	115.335319519043	955.2746582031255	-353.1292419433595	125.1130828857422	961.1514282226567	-481.5501708984377	125.9233932495118	533.4790649414065	-309.6887817382814	115.1688461303712	533.0066528320315	-518.3982543945315	171.0618896484376	95.35553741455081	-268.2984924316407	170.2033081054688	91.85797119140628	-553.725280761719	
114	1.13	58.96691894531253	1047.115966796875	-310.3762512207032	74.99954223632815	1056.848754882813	-523.606140136719	253.1530914306642	1063.266723632813	-342.1631164550782	266.0044250488282	1064.301147460938	-453.574401855469	121.8210220336915	749.5184326171877	-216.3452453613282	126.3696060180665	539.221862792969	-252.0144042968751	157.7993469238282	302.696990966797	-218.8279113769532	175.8128814697266	99.94277954101568	-223.3235473632814	238.5509490966798	55.99699783325198	-265.4768371582032	12.93612957000733	63.22184753417972	-247.7209472656251	128.3483581542969	817.1139526367192	-611.603210449219	118.5157852172852	537.7027587890627	-575.0252075195315	150.4120025634766	383.6744995117189	-603.9482421875002	179.8468475341797	96.60193634033209	-598.8955688476565	246.2206878662111	58.89632797241214	-553.6245117187502	21.80509757995606	62.80712890625003	-576.8279418945315	120.2086715698243	958.1227416992192	-417.273376464844	-8.081306457519535	950.150512695313	-427.2833251953127	110.5520324707032	952.260620117188	-288.8426208496095	111.8119583129883	1086.669067382813	-412.037292480469	125.8196563720704	533.279968261719	-309.7066040039064	-298.3106689453126	523.2452392578127	-304.630096435547	129.8426055908204	576.745788574219	112.3212585449219	115.318099975586	955.2077026367192	-353.061981201172	170.862777709961	95.18291473388675	-268.3023071289064	-246.3747711181642	57.00605010986331	-218.3434295654298	216.7680969238282	139.3239746093751	148.8125915527344	127.8969268798829	513.0760498046877	-307.7971496582032	16.46703529357911	87.46754455566409	-240.3946838378907	21.58941459655762	305.5255126953126	-264.0342712402345	34.32093811035158	110.6206207275391	-22.95611572265626	235.0747833251954	80.467155456543	-257.5991210937501	-56.4022026062012	89.80103302001956	-234.6598663330079	-54.69473648071292	162.4870300292969	-242.5397338867189	-50.45090103149417	97.51871490478521	-162.1803588867188	16.46703720092774	87.46755218505862	-240.3946990966798	115.2172012329102	532.9000244140627	-518.3237915039065	-313.7819824218751	544.8621826171877	-542.2674560546877	90.34277343750003	496.6830139160159	-90.74188232421878	125.099235534668	961.0376586914067	-481.4848327636721	170.1665496826172	91.77228546142581	-553.6715087890627	-243.1222686767579	47.75611495971681	-646.8374633789065	81.49497985839847	47.53263092041017	-139.4189453125001	117.6816101074219	513.1157836914065	-519.9090576171877	17.1275978088379	81.82511901855472	-585.2446899414065	18.48564720153809	299.2379760742189	-561.7356567382815	-5.636650085449221	58.58390045166018	-368.9936523437501	234.6196899414064	78.03498840332034	-562.7571411132815	-55.36976623535159	83.08850860595706	-592.7405395507815	-54.91704559326175	155.5594482421876	-584.9041748046877	-62.95787429809573	75.34143829345706	-520.6568603515627	17.12760162353516	81.82509613037112	-585.2446899414065	-8.346312522888187	-5.095087051391603	1.67554533481598	0.4235144853591921	-5.689048767089846	4.430496692657472	0	0	7.222489833831791	1.726105830534079e-13	1.578457713127137	7.225265026092533	-2.198634147644044	1.032092690467835	5.232067108154299	-0.1508183479309083	-8.784979820251468	8.400790214538578	1.391266252594517e-13	6.04063701629639	7.601224422454838	0	0	7.558767795562748	-2.327592849731446	4.456642150878908	3.737295866012575	2.327592849731446	-4.456642150878908	3.737295866012575	-6.204759120941166	-4.497607707977297	-91.83415222167972	-6.204367637634281	-5.902225971221926	-90.99837493896487	115.3181152343751	955.2077026367192	-353.0620117187501	125.0992279052735	961.0378417968755	-481.484802246094	125.8196563720704	533.2800292968752	-309.7066345214845	115.2172012329102	532.9000244140627	-518.3237915039065	170.862777709961	95.18291473388675	-268.3023071289064	170.1665496826172	91.77227783203128	-553.6715087890627	
115	1.14	58.96768188476565	1047.019653320313	-310.4165039062501	74.33514404296878	1056.836059570313	-523.4944458007815	253.1884918212892	1063.258056640625	-342.1851806640626	266.012664794922	1064.301635742188	-453.583435058594	121.792594909668	749.3898925781252	-216.3596496582032	126.2832489013672	539.1162109375002	-252.0537261962892	157.6719512939454	302.5890197753907	-218.9155731201173	175.7107696533204	99.83898925781256	-223.3393554687501	238.5336151123048	55.9659118652344	-265.5009155273439	12.89854717254639	63.16739654541018	-247.6975555419923	128.3309783935547	817.0488891601567	-611.5938720703127	118.521827697754	537.5881347656252	-574.9962158203127	150.3878631591797	383.5923156738282	-603.9627075195315	179.7401733398438	96.51339721679693	-598.898376464844	246.2058868408204	58.89206695556643	-553.6334228515627	21.7606430053711	62.72405624389651	-576.7943115234377	119.9051132202149	958.085083007813	-417.4380493164065	-8.412193298339847	950.0766601562505	-427.0614013671877	110.6406326293946	952.167114257813	-288.9809570312501	111.4841232299805	1086.626586914063	-412.1235351562502	125.6885833740235	533.1586914062502	-309.743865966797	-298.5056152343751	523.1823730468752	-304.3411560058595	130.0392608642579	576.7459716796877	112.3350219726563	115.2106399536133	955.1420898437505	-353.2132568359376	170.7652130126954	95.07685089111331	-268.3183898925782	-246.4640655517579	56.86644363403323	-218.3974151611329	216.6273040771486	139.2380065917969	148.7893676757813	127.7674560546876	512.955017089844	-307.8334045410157	16.37598419189454	87.3454284667969	-240.3791503906251	21.46980285644532	305.4032592773439	-264.0260314941407	34.27149963378908	110.5066452026368	-22.94491577148438	234.9809570312501	80.36833190917972	-257.6278076171876	-56.49234008789065	89.6711349487305	-234.6295928955079	-54.79439926147464	162.3570709228516	-242.5118865966798	-50.52716827392581	97.39154052734381	-162.1515197753907	16.37598419189454	87.34543609619143	-240.3791503906251	115.0437469482422	532.8147583007815	-518.3030395507815	-313.9329833984376	544.5549316406252	-543.6319580078127	88.81263732910159	496.8149414062502	-90.73278808593753	124.5996017456055	961.0280151367192	-481.6628417968752	169.9707489013672	91.67044830322268	-553.6948852539065	-243.1616973876954	47.77177810668947	-647.6846923828127	80.47919464111331	47.30721664428712	-139.6142578125001	117.5070800781251	513.0305175781252	-519.8902587890627	16.92943382263184	81.67361450195315	-585.240905761719	18.20910644531251	299.0804443359376	-561.6719970703127	-5.783586502075197	58.36393356323245	-368.9918823242189	234.4273376464845	77.96026611328128	-562.7969970703127	-55.56986999511722	82.91140747070315	-592.7222290039065	-55.1433029174805	155.3803710937501	-584.8659667968752	-63.14089584350589	75.14154815673831	-520.6392211914065	16.92943572998048	81.67362213134768	-585.240905761719	-8.391567230224613	-4.963674545288088	1.711602807044984	0.4315720200538637	-5.638041973114015	4.438844203948976	0	0	7.219491958618168	-4.048759754109873e-13	1.561775207519532	7.222191810607914	-2.154924869537354	0.6735863089561465	5.188036918640138	-0.2068709284067155	-8.722928047180179	8.351572990417484	3.758900132887038e-14	6.166403293609623	7.580194950103763	0	0	7.536076545715336	-2.362472534179688	4.284308910369875	3.748204231262209	2.362472534179688	-4.284308910369875	3.748204231262209	-6.206763744354252	-4.509194850921633	-91.82806396484378	-6.220074653625492	-5.890744209289553	-90.97812652587893	115.2106094360352	955.1421508789067	-353.2132873535157	124.5996170043946	961.0280151367192	-481.6628112792971	125.6885833740235	533.158630371094	-309.7438964843751	115.0437469482422	532.8148193359377	-518.3030395507815	170.7652130126954	95.07684326171878	-268.3183898925782	169.9707489013672	91.67044830322268	-553.6948852539065	
